# File created by Blade
# Date/Time:  Wed Jan 21 17:47:32 2015
# Frame Rate: 120.000 fps
#------------------------------------------------------
:FULLY-SPECIFIED
:DEGREES
1779
root 19.810641 35.418616 -23.208815 -178.864474 0.893861 -180.868946
Spine -12.671248 1.555883 -3.992423
Head 10.515914 -0.827106 3.488604
LeftShoulder -12.408370 -31.063165 20.430036
LeftArm 6.216719 6.293289 -6.312821
LeftForeArm 6.870222 -0.000000 -3.439453
LeftHand -7.415786 -0.000000 -5.214123
LeftHandThumb1 -26.253704 0.000000 33.147579
RightShoulder -10.460204 -3.062749 -8.359579
RightArm 2.571386 33.288898 8.620873
RightForeArm -31.664444 0.000000 3.596598
RightHand -5.758985 -0.000000 5.422409
RightHandThumb1 -24.326973 -0.000000 -32.862282
LeftUpLeg 5.931400 9.077311 2.318034
LeftLeg -2.974872 -0.000000 0.000000
LeftFoot -19.759483 25.255713 -13.720452
LeftToeBase 23.970117 -0.000000 -0.000000
RightUpLeg 6.227697 -10.216871 -7.557467
RightLeg -1.741742 -0.000000 0.000000
RightFoot -20.809067 -21.547281 19.336490
RightToeBase 24.851099 -0.000000 -0.000000
1780
root 19.874771 35.420018 -23.194473 -178.856806 0.699786 -180.850825
Spine -12.643990 1.313191 -3.962227
Head 10.524107 -0.856433 3.729343
LeftShoulder -12.312245 -31.118262 20.211246
LeftArm 5.818352 6.054041 -6.484876
LeftForeArm 7.127173 0.000000 -3.497320
LeftHand -7.807812 -0.000000 -5.907980
LeftHandThumb1 -26.253704 0.000000 33.147579
RightShoulder -10.444803 -2.889495 -8.301659
RightArm 2.582928 34.130108 8.822941
RightForeArm -31.618292 -0.000000 3.404776
RightHand -5.748283 -0.000000 5.823095
RightHandThumb1 -24.326973 -0.000000 -32.862282
LeftUpLeg 5.855500 9.354370 2.474059
LeftLeg -2.954632 -0.000000 0.000000
LeftFoot -19.587584 24.850327 -13.653447
LeftToeBase 24.019774 -0.000000 -0.000000
RightUpLeg 6.354740 -10.243480 -7.423139
RightLeg -1.940328 -0.000000 0.000000
RightFoot -20.795327 -21.693080 19.325605
RightToeBase 24.681715 -0.000000 -0.000000
1781
root 19.938274 35.420220 -23.182013 -178.848006 0.494129 -180.822972
Spine -12.618302 1.067912 -3.930852
Head 10.530925 -0.823117 4.008751
LeftShoulder -12.250553 -31.163173 19.985906
LeftArm 5.513223 5.718706 -6.630302
LeftForeArm 7.471951 -0.000000 -3.556513
LeftHand -8.096513 -0.000000 -6.428944
LeftHandThumb1 -26.253704 0.000000 33.147579
RightShoulder -10.414384 -2.696462 -8.243142
RightArm 2.566453 34.951212 9.023858
RightForeArm -31.718241 0.000000 3.245063
RightHand -5.881229 -0.000000 6.249805
RightHandThumb1 -24.326973 -0.000000 -32.862282
LeftUpLeg 5.738622 9.797993 2.641864
LeftLeg -2.867192 -0.000000 0.000000
LeftFoot -19.413057 24.343515 -13.505694
LeftToeBase 24.042056 -0.000000 -0.000000
RightUpLeg 6.485965 -10.251946 -7.279175
RightLeg -2.141699 -0.000000 0.000000
RightFoot -20.812066 -21.867510 19.197841
RightToeBase 24.813855 -0.000000 -0.000000
1782
root 20.000766 35.421143 -23.167226 -178.786283 0.312675 -180.791964
Spine -12.674689 0.872439 -3.897887
Head 10.552876 -0.881558 4.242003
LeftShoulder -12.144645 -31.262118 19.747651
LeftArm 5.173985 5.318073 -6.765957
LeftForeArm 7.743038 -0.000000 -3.582116
LeftHand -8.233859 0.000000 -6.803901
LeftHandThumb1 -26.253704 0.000000 33.147579
RightShoulder -10.478044 -2.647850 -8.207076
RightArm 2.697390 35.701652 9.344261
RightForeArm -31.711620 -0.000000 3.081776
RightHand -5.926149 -0.000000 6.791705
RightHandThumb1 -24.326973 -0.000000 -32.862282
LeftUpLeg 5.598308 9.993379 2.788925
LeftLeg -2.832154 -0.000000 0.000000
LeftFoot -19.285291 24.026797 -13.464988
LeftToeBase 24.092602 -0.000000 -0.000000
RightUpLeg 6.520433 -10.277099 -7.123614
RightLeg -2.281937 -0.000000 0.000000
RightFoot -20.832134 -22.018457 19.129577
RightToeBase 24.780713 -0.000000 -0.000000
1783
root 20.062311 35.422452 -23.157696 -178.732219 0.190680 -180.761320
Spine -12.740215 0.697056 -3.860136
Head 10.585246 -0.875257 4.495385
LeftShoulder -12.142092 -31.315938 19.564363
LeftArm 4.937269 4.866241 -6.924610
LeftForeArm 7.958597 -0.000000 -3.640981
LeftHand -8.533901 -0.000000 -6.900244
LeftHandThumb1 -26.253704 0.000000 33.147579
RightShoulder -10.449385 -2.593951 -8.185830
RightArm 2.750924 36.105919 9.634635
RightForeArm -31.546080 0.000000 2.969670
RightHand -6.122135 0.000000 7.130612
RightHandThumb1 -24.326973 -0.000000 -32.862282
LeftUpLeg 5.492780 10.283039 2.937449
LeftLeg -2.828422 -0.000000 0.000000
LeftFoot -19.149090 23.719210 -13.458136
LeftToeBase 24.135250 -0.000000 -0.000000
RightUpLeg 6.553504 -10.260629 -6.964563
RightLeg -2.425319 -0.000000 0.000000
RightFoot -20.838334 -22.198067 19.054460
RightToeBase 24.762482 -0.000000 -0.000000
1784
root 20.118961 35.423505 -23.144522 -178.639893 0.043154 -180.728694
Spine -12.843624 0.520770 -3.810950
Head 10.617328 -0.895331 4.706513
LeftShoulder -12.143644 -31.330733 19.384818
LeftArm 4.761521 4.386397 -7.106199
LeftForeArm 7.913824 -0.000000 -3.710821
LeftHand -8.529451 -0.000000 -7.117749
LeftHandThumb1 -26.253704 0.000000 33.147579
RightShoulder -10.482696 -2.660458 -8.192087
RightArm 2.940181 36.620001 10.023319
RightForeArm -31.527311 -0.000000 2.749824
RightHand -6.094675 -0.000000 7.490059
RightHandThumb1 -24.326973 -0.000000 -32.862282
LeftUpLeg 5.332377 10.462397 3.060769
LeftLeg -2.800490 -0.000000 0.000000
LeftFoot -19.036882 23.464264 -13.436785
LeftToeBase 24.150554 -0.000000 -0.000000
RightUpLeg 6.534503 -10.300260 -6.811287
RightLeg -2.542698 -0.000000 0.000000
RightFoot -20.852478 -22.318630 18.980225
RightToeBase 24.814175 -0.000000 -0.000000
